<svg width="23" height="23" viewBox="0 0 23 23" fill="none" xmlns="http://www.w3.org/2000/svg"><g id="Icon"><path id="Vector" d="M11.5 2.875C10.3673 2.875 9.24579 3.09809 8.19936 3.53154C7.15292 3.96499 6.20211 4.6003 5.4012 5.4012C4.6003 6.20211 3.96499 7.15292 3.53154 8.19936C3.09809 9.24579 2.875 10.3673 2.875 11.5C2.875 12.6327 3.09809 13.7542 3.53154 14.8006C3.96499 15.8471 4.6003 16.7979 5.4012 17.5988C6.20211 18.3997 7.15292 19.035 8.19936 19.4685C9.24579 19.9019 10.3673 20.125 11.5 20.125H12.4583C12.9667 20.125 13.4542 19.9231 13.8136 19.5636C14.1731 19.2042 14.375 18.7167 14.375 18.2083C14.3697 17.7491 14.1997 17.307 13.8958 16.9625C13.6766 16.6712 13.5451 16.3235 13.5165 15.9601C13.488 15.5967 13.5636 15.2327 13.7347 14.9108C13.9057 14.5889 14.1649 14.3224 14.482 14.1426C14.7992 13.9629 15.161 13.8773 15.525 13.8958H17.25C18.0125 13.8958 18.7438 13.5929 19.2829 13.0538C19.8221 12.5146 20.125 11.7833 20.125 11.0208C20.0024 8.8174 19.0399 6.74477 17.4354 5.2295C15.831 3.71423 13.7068 2.87159 11.5 2.875Z" stroke="#D648A0" stroke-width="1.725" stroke-linecap="round" stroke-linejoin="round"/><path id="Vector_2" d="M6.70833 11.5C7.23761 11.5 7.66667 11.0709 7.66667 10.5417C7.66667 10.0124 7.23761 9.58333 6.70833 9.58333C6.17906 9.58333 5.75 10.0124 5.75 10.5417C5.75 11.0709 6.17906 11.5 6.70833 11.5Z" fill="#D648A0"/><path id="Vector_3" d="M8.625 7.66667C9.15427 7.66667 9.58333 7.23761 9.58333 6.70833C9.58333 6.17906 9.15427 5.75 8.625 5.75C8.09573 5.75 7.66667 6.17906 7.66667 6.70833C7.66667 7.23761 8.09573 7.66667 8.625 7.66667Z" fill="#D648A0"/><path id="Vector_4" d="M13.4167 7.66667C13.9459 7.66667 14.375 7.23761 14.375 6.70833C14.375 6.17906 13.9459 5.75 13.4167 5.75C12.8874 5.75 12.4583 6.17906 12.4583 6.70833C12.4583 7.23761 12.8874 7.66667 13.4167 7.66667Z" fill="#D648A0"/><path id="Vector_5" d="M16.2917 11.5C16.8209 11.5 17.25 11.0709 17.25 10.5417C17.25 10.0124 16.8209 9.58333 16.2917 9.58333C15.7624 9.58333 15.3333 10.0124 15.3333 10.5417C15.3333 11.0709 15.7624 11.5 16.2917 11.5Z" fill="#D648A0"/></g></svg>